<?xml version="1.0" standalone="no"?>
<!DOCTYPE svg PUBLIC "-//W3C//DTD SVG 20010904//EN"
 "http://www.w3.org/TR/2001/REC-SVG-20010904/DTD/svg10.dtd">
<svg version="1.0" xmlns="http://www.w3.org/2000/svg"
 width="1024.000000pt" height="1024.000000pt" viewBox="0 0 1024.000000 1024.000000"
 preserveAspectRatio="xMidYMid meet">

<g transform="translate(0.000000,1024.000000) scale(0.100000,-0.100000)"
fill="#000000" stroke="none">
<path d="M10 5115 l0 -5115 5115 0 5115 0 0 5115 0 5115 -5115 0 -5115 0 0
-5115z m2715 1359 c263 -43 514 -171 718 -365 l92 -88 -115 -115 -114 -115
-81 78 c-173 168 -376 266 -606 293 -78 9 -102 9 -112 -1 -17 -17 -23 -257 -7
-276 6 -8 64 -26 128 -41 170 -39 270 -92 402 -212 l65 -60 -117 -118 -117
-118 -63 60 c-35 33 -73 66 -85 72 -37 20 -160 62 -181 62 -50 0 -52 4 -53
139 -1 170 -3 175 -62 179 -96 6 -275 -67 -404 -165 -168 -127 -259 -314 -270
-553 -7 -140 14 -238 79 -370 60 -122 187 -248 313 -313 158 -80 309 -106 335
-57 5 10 10 77 10 148 0 126 1 130 23 136 12 3 32 6 45 6 54 0 168 60 240 126
l72 66 115 -107 115 -108 -21 -28 c-31 -43 -131 -129 -201 -171 -78 -48 -152
-76 -253 -95 -118 -23 -125 -32 -125 -159 0 -57 4 -114 10 -128 9 -24 14 -26
77 -26 207 1 479 124 653 296 36 35 72 64 80 64 9 0 62 -47 119 -104 90 -90
102 -106 92 -123 -14 -27 -120 -124 -205 -188 -210 -158 -470 -256 -717 -271
-92 -6 -107 -5 -112 9 -3 9 -9 79 -13 157 -4 77 -10 140 -13 140 -156 7 -354
61 -489 136 -440 242 -648 732 -521 1232 21 85 90 236 141 310 101 146 292
301 471 379 117 52 170 67 297 83 52 7 101 17 108 22 8 8 12 51 12 153 0 78 3
145 7 149 9 9 115 0 238 -20z m1172 -680 c47 -36 66 -78 60 -132 -8 -77 -65
-132 -144 -139 -39 -4 -55 0 -83 19 -72 49 -97 120 -66 191 39 92 153 122 233
61z m2829 15 c77 -37 109 -117 76 -191 -51 -115 -196 -131 -266 -29 -55 79
-28 183 58 222 53 24 80 24 132 -2z m-1948 -438 c39 -20 78 -58 107 -103 9
-16 20 -28 24 -28 4 0 32 24 63 54 76 73 144 99 263 100 73 0 99 -4 139 -22
116 -53 163 -121 190 -272 14 -78 16 -150 14 -405 l-3 -310 -117 -3 c-65 -1
-119 -1 -120 0 -1 2 -4 165 -7 363 -5 318 -8 364 -24 392 -28 51 -66 66 -152
58 -61 -6 -78 -12 -99 -34 -54 -56 -56 -72 -56 -441 l0 -340 -125 0 -125 0 0
348 c0 341 0 349 -22 392 -46 89 -125 112 -218 63 -96 -51 -94 -42 -95 -448
l0 -350 -122 -3 -123 -3 0 501 0 500 83 0 c78 0 85 -2 109 -27 14 -16 29 -38
32 -50 7 -21 9 -21 67 22 53 39 82 53 144 69 37 9 135 -4 173 -23z m1596 18
c34 -16 36 -26 29 -121 -8 -109 -17 -117 -115 -110 -83 5 -126 -9 -174 -56
-58 -59 -59 -61 -64 -402 l-5 -315 -117 -3 -118 -3 0 501 0 500 88 0 c105 0
117 -8 128 -88 3 -28 9 -52 13 -52 3 0 28 25 54 55 63 72 124 104 199 105 31
0 68 -5 82 -11z m856 -115 l0 -114 100 0 100 0 0 -70 0 -70 -101 0 -101 0 4
-217 c4 -269 4 -268 93 -258 l64 6 31 -42 c17 -23 29 -47 27 -53 -8 -24 -71
-55 -135 -66 -115 -19 -204 16 -241 95 -17 34 -20 72 -25 270 -3 127 -6 238
-6 248 0 14 -9 17 -45 17 -49 0 -65 16 -65 68 0 37 15 49 68 58 23 3 46 12 51
18 4 6 16 52 26 101 9 50 21 98 26 107 10 19 37 25 92 19 l37 -3 0 -114z
m-3300 -394 l0 -500 -120 0 -120 0 0 500 0 500 120 0 120 0 0 -500z m2850 0
l0 -500 -120 0 -120 0 0 500 0 500 120 0 120 0 0 -500z m2051 272 c14 -18 16
-34 12 -80 -3 -31 -10 -63 -16 -69 -6 -8 -36 -13 -81 -13 -67 0 -73 -2 -102
-33 -17 -17 -38 -43 -47 -57 -21 -34 -29 -165 -20 -327 4 -73 5 -133 1 -133
-4 0 -7 -8 -5 -17 3 -23 2 -23 -98 -23 l-85 0 0 380 0 380 60 0 c47 0 64 -4
80 -20 11 -11 20 -24 20 -29 0 -5 4 -21 10 -36 l10 -25 37 41 c60 66 100 88
157 85 36 -2 53 -8 67 -24z m-1105 -264 c1 -244 3 -269 21 -300 39 -68 165
-72 236 -8 l32 28 3 276 3 276 79 0 c58 0 83 -4 94 -16 14 -13 16 -62 16 -378
l0 -363 -31 -7 c-64 -13 -97 -7 -118 20 -11 14 -23 34 -26 45 -6 18 -8 18 -38
-5 -67 -50 -119 -69 -192 -70 -83 -1 -134 15 -181 57 -73 63 -76 77 -82 398
-3 158 -2 294 1 303 6 14 20 16 94 14 l88 -3 1 -267z m334 -586 c54 -27 46
-48 -17 -44 -45 2 -54 -1 -72 -24 -29 -37 -27 -88 3 -119 21 -21 30 -24 75
-18 48 5 50 5 44 -16 -7 -27 -40 -41 -96 -41 -51 0 -84 21 -103 66 -33 78 -5
171 59 199 43 19 65 18 107 -3z m268 -2 c50 -23 72 -64 72 -136 0 -41 -5 -51
-39 -85 -34 -35 -44 -39 -87 -39 -135 0 -195 147 -99 242 41 41 89 47 153 18z
m228 10 c29 10 39 9 67 -8 31 -19 33 -19 62 -1 35 22 54 23 90 7 43 -19 55
-56 55 -168 l0 -100 -35 0 -35 0 0 94 c0 74 -4 98 -16 111 -43 43 -74 -8 -74
-122 l0 -83 -35 0 -35 0 0 99 c0 112 -10 133 -55 113 -24 -11 -25 -15 -25
-112 l0 -100 -35 0 -35 0 0 139 0 139 36 -9 c24 -7 46 -7 70 1z m-735 -200
c21 -12 25 -40 7 -58 -19 -19 -36 -14 -55 14 -16 25 -16 27 2 40 23 17 21 17
46 4z"/>
<path d="M8243 4249 c-12 -4 -26 -17 -32 -28 -37 -69 36 -164 89 -116 15 14
20 31 20 70 0 65 -28 92 -77 74z"/>
</g>
</svg>
